 <svg  version="1.0" xmlns="http://www.w3.org/2000/svg"  width="32.000000pt" height="32.000000pt" viewBox="0 0 32.000000 32.000000"  preserveAspectRatio="xMidYMid meet">  <g transform="translate(0.000000,32.000000) scale(0.100000,-0.100000)" fill="#f52929" stroke="none"> <path d="M31 284 c-18 -23 -21 -41 -21 -121 0 -89 9 -129 34 -145 6 -4 59 -8 118 -8 103 0 107 1 127 26 18 23 21 41 21 126 0 92 -2 101 -25 123 -22 23 -31 25 -129 25 -101 0 -105 -1 -125 -26z m170 -24 c41 -22 16 -110 -32 -110 -14 0 -19 -7 -19 -30 0 -25 -4 -30 -25 -30 -25 0 -25 1 -25 90 l0 90 41 0 c22 0 49 -5 60 -10z"/> <path d="M150 210 c0 -5 5 -10 10 -10 6 0 10 5 10 10 0 6 -4 10 -10 10 -5 0 -10 -4 -10 -10z"/> </g> </svg> 