<svg width="131" height="40" viewBox="0 0 131 40" fill="none" xmlns="http://www.w3.org/2000/svg">
<path d="M19.2227 38.5427C19.2227 38.5427 11.7457 42.1824 6.08112 37.9576C-0.195465 33.2763 0.000678697 25.8643 0.000678697 25.8643V20.0127V12.8932C0.000678697 12.8932 0.444769 4.41428 5.58586 1.77813C10.9798 -0.987659 17.0651 -0.0777986 19.7131 1.48263C22.3103 2.86523 28.6229 6.40089 33.0949 9.48273C37.567 12.5646 39.0152 17.5267 38.9351 19.6226C38.7576 24.0142 37.0178 27.5739 33.0949 30.0608C30.447 31.9139 19.2227 38.5427 19.2227 38.5427Z" fill="white"/>
<path d="M19.2227 38.5427C19.2227 38.5427 11.7457 42.1824 6.08112 37.9576C-0.195465 33.2763 0.000678697 25.8643 0.000678697 25.8643V20.0127V12.8932C0.000678697 12.8932 0.444769 4.41428 5.58586 1.77813C10.9798 -0.987659 17.0651 -0.0777986 19.7131 1.48263C22.3103 2.86523 28.6229 6.40089 33.0949 9.48273C37.567 12.5646 39.0152 17.5267 38.9351 19.6226C38.7576 24.0142 37.0178 27.5739 33.0949 30.0608C30.447 31.9139 19.2227 38.5427 19.2227 38.5427Z" fill="url(#paint0_linear)" fill-opacity="0.2"/>
<path d="M9.61169 25.1816L9.70977 12.9908C9.70977 12.9908 9.70977 10.8452 11.5731 9.96746C13.4365 9.08972 14.5153 9.77241 16.7709 11.0403C19.0266 12.3081 26.48 16.5993 26.48 16.5993C26.48 16.5993 28.7356 17.6721 28.7356 20.0127C28.7356 22.3533 25.8916 23.5237 25.8916 23.5237L15.344 29.6678C15.344 29.6678 12.647 30.9368 11.1808 29.6678C10.03 28.6718 9.61169 28.0099 9.61169 25.1816Z" fill="url(#paint1_linear)"/>
<path d="M60.6887 10.4744C63.2496 10.4744 65.2644 11.0829 66.7331 12.3001C68.2018 13.5172 68.9362 15.1931 68.9362 17.3278C68.9362 19.4624 68.2018 21.1383 66.7331 22.3554C65.2644 23.5726 63.2496 24.1811 60.6887 24.1811H55.8024V30.1357H52.978V10.4744H60.6887ZM60.604 21.7375C62.3928 21.7375 63.758 21.363 64.6995 20.614C65.641 19.8463 66.1117 18.7509 66.1117 17.3278C66.1117 15.9046 65.641 14.8186 64.6995 14.0696C63.758 13.3019 62.3928 12.918 60.604 12.918H55.8024V21.7375H60.604Z" fill="white"/>
<path d="M72.442 15.2493H75.1535V30.1357H72.442V15.2493ZM73.7978 12.3843C73.2705 12.3843 72.828 12.2158 72.4703 11.8787C72.1313 11.5417 71.9619 11.1297 71.9619 10.6429C71.9619 10.156 72.1313 9.74408 72.4703 9.40703C72.828 9.05126 73.2705 8.87337 73.7978 8.87337C74.325 8.87337 74.7581 9.04189 75.097 9.37895C75.4548 9.69727 75.6337 10.0999 75.6337 10.5867C75.6337 11.0923 75.4548 11.523 75.097 11.8787C74.7581 12.2158 74.325 12.3843 73.7978 12.3843Z" fill="white"/>
<path d="M88.2674 15.1088C89.7173 15.1088 91.0166 15.4272 92.1652 16.0638C93.3138 16.7005 94.2082 17.5899 94.8484 18.7321C95.5075 19.8744 95.837 21.1945 95.837 22.6925C95.837 24.1905 95.5075 25.52 94.8484 26.6809C94.2082 27.8232 93.3138 28.7126 92.1652 29.3493C91.0166 29.9859 89.7173 30.3043 88.2674 30.3043C87.1941 30.3043 86.2056 30.0983 85.3017 29.6863C84.4167 29.2744 83.6635 28.6752 83.0422 27.8887V35.5847H80.3307V15.2493H82.9292V17.6086C83.5317 16.7847 84.2943 16.1668 85.217 15.7548C86.1397 15.3242 87.1565 15.1088 88.2674 15.1088ZM88.0415 27.9449C89.0018 27.9449 89.8585 27.7295 90.6117 27.2989C91.3837 26.8495 91.9863 26.2315 92.4194 25.4451C92.8713 24.6399 93.0972 23.7224 93.0972 22.6925C93.0972 21.6626 92.8713 20.7544 92.4194 19.968C91.9863 19.1628 91.3837 18.5449 90.6117 18.1142C89.8585 17.6835 89.0018 17.4682 88.0415 17.4682C87.1 17.4682 86.2432 17.6929 85.4712 18.1423C84.718 18.573 84.1155 19.1815 83.6635 19.968C83.2305 20.7544 83.0139 21.6626 83.0139 22.6925C83.0139 23.7224 83.2305 24.6399 83.6635 25.4451C84.0966 26.2315 84.6992 26.8495 85.4712 27.2989C86.2432 27.7295 87.1 27.9449 88.0415 27.9449Z" fill="white"/>
<path d="M113.113 22.7768C113.113 22.9827 113.094 23.2542 113.056 23.5913H100.911C101.08 24.9021 101.655 25.96 102.634 26.7652C103.632 27.5517 104.865 27.9449 106.334 27.9449C108.123 27.9449 109.563 27.3457 110.655 26.1473L112.152 27.8887C111.474 28.6752 110.627 29.2744 109.61 29.6863C108.612 30.0983 107.492 30.3043 106.249 30.3043C104.667 30.3043 103.265 29.9859 102.041 29.3493C100.817 28.6939 99.8658 27.7857 99.1879 26.6248C98.5289 25.4638 98.1994 24.1531 98.1994 22.6925C98.1994 21.2507 98.5195 19.9493 99.1597 18.7883C99.8187 17.6274 100.713 16.7285 101.843 16.0919C102.992 15.4365 104.281 15.1088 105.712 15.1088C107.143 15.1088 108.415 15.4365 109.525 16.0919C110.655 16.7285 111.531 17.6274 112.152 18.7883C112.792 19.9493 113.113 21.2788 113.113 22.7768ZM105.712 17.3839C104.413 17.3839 103.321 17.7772 102.436 18.5636C101.57 19.3501 101.061 20.3799 100.911 21.6533H110.514C110.363 20.3987 109.846 19.3782 108.961 18.5917C108.094 17.7865 107.012 17.3839 105.712 17.3839Z" fill="white"/>
<path d="M131 9.29468V30.1357H128.401V27.7764C127.799 28.6003 127.036 29.2276 126.114 29.6582C125.191 30.0889 124.174 30.3043 123.063 30.3043C121.613 30.3043 120.314 29.9859 119.165 29.3493C118.017 28.7126 117.113 27.8232 116.454 26.6809C115.814 25.52 115.494 24.1905 115.494 22.6925C115.494 21.1945 115.814 19.8744 116.454 18.7321C117.113 17.5899 118.017 16.7005 119.165 16.0638C120.314 15.4272 121.613 15.1088 123.063 15.1088C124.137 15.1088 125.125 15.3148 126.029 15.7268C126.933 16.12 127.686 16.7098 128.288 17.4963V9.29468H131ZM123.289 27.9449C124.231 27.9449 125.087 27.7295 125.859 27.2989C126.631 26.8495 127.234 26.2315 127.667 25.4451C128.1 24.6399 128.317 23.7224 128.317 22.6925C128.317 21.6626 128.1 20.7544 127.667 19.968C127.234 19.1628 126.631 18.5449 125.859 18.1142C125.087 17.6835 124.231 17.4682 123.289 17.4682C122.329 17.4682 121.463 17.6835 120.691 18.1142C119.938 18.5449 119.335 19.1628 118.883 19.968C118.45 20.7544 118.233 21.6626 118.233 22.6925C118.233 23.7224 118.45 24.6399 118.883 25.4451C119.335 26.2315 119.938 26.8495 120.691 27.2989C121.463 27.7295 122.329 27.9449 123.289 27.9449Z" fill="white"/>
<defs>
<linearGradient id="paint0_linear" x1="4.02522" y1="-0.0999262" x2="38.6812" y2="55.6382" gradientUnits="userSpaceOnUse">
<stop stop-color="white"/>
<stop offset="1"/>
</linearGradient>
<linearGradient id="paint1_linear" x1="28.7356" y1="14.7369" x2="10.0884" y2="14.7516" gradientUnits="userSpaceOnUse">
<stop stop-color="#DE77FF"/>
<stop offset="1" stop-color="#6846FF"/>
</linearGradient>
</defs>
</svg>
