<svg width="41" height="44" viewBox="0 0 183 189" fill="none" xmlns="http://www.w3.org/2000/svg">
<path d="M90.6256 181.862C90.6256 181.862 55.6327 198.991 29.1218 179.108C-0.25317 157.077 0.664797 122.194 0.664797 122.194V94.6548V61.149C0.664797 61.149 2.74318 21.2449 26.8039 8.8386C52.048 -4.17788 80.528 0.104137 92.9205 7.44788C105.076 13.9547 134.619 30.5944 155.549 45.0983C176.479 59.6022 183.256 82.9553 182.881 92.8189C182.051 113.487 173.908 130.24 155.549 141.944C143.156 150.665 90.6256 181.862 90.6256 181.862Z" fill="white"/>
<path d="M90.6256 181.862C90.6256 181.862 55.6327 198.991 29.1218 179.108C-0.25317 157.077 0.664797 122.194 0.664797 122.194V94.6548V61.149C0.664797 61.149 2.74318 21.2449 26.8039 8.8386C52.048 -4.17788 80.528 0.104137 92.9205 7.44788C105.076 13.9547 134.619 30.5944 155.549 45.0983C176.479 59.6022 183.256 82.9553 182.881 92.8189C182.051 113.487 173.908 130.24 155.549 141.944C143.156 150.665 90.6256 181.862 90.6256 181.862Z" fill="url(#paint0_linear)" fill-opacity="0.2"/>
<path d="M45.6453 118.981L46.1042 61.608C46.1042 61.608 46.1042 51.5103 54.8249 47.3795C63.5456 43.2486 68.5945 46.4615 79.1511 52.4283C89.7077 58.3951 124.59 78.5904 124.59 78.5904C124.59 78.5904 135.147 83.6392 135.147 94.6548C135.147 105.67 121.837 111.178 121.837 111.178L72.4729 140.094C72.4729 140.094 59.8508 146.066 52.989 140.094C47.603 135.407 45.6453 132.291 45.6453 118.981Z" fill="url(#paint1_linear)"/>
<defs>
<linearGradient id="paint0_linear" x1="19.5" y1="-9.21904e-07" x2="183" y2="261.5" gradientUnits="userSpaceOnUse">
<stop stop-color="white"/>
<stop offset="1"/>
</linearGradient>
<linearGradient id="paint1_linear" x1="135.147" y1="69.8255" x2="47.8765" y2="69.8942" gradientUnits="userSpaceOnUse">
<stop stop-color="#DE77FF"/>
<stop offset="1" stop-color="#6846FF"/>
</linearGradient>
</defs>
</svg>
