<svg width="79" height="28" viewBox="0 0 79 28" fill="none" xmlns="http://www.w3.org/2000/svg">
<path d="M8.68875 2.47436C11.2496 2.47436 13.2644 3.08293 14.7331 4.30006C16.2018 5.51719 16.9362 7.19309 16.9362 9.32775C16.9362 11.4624 16.2018 13.1383 14.7331 14.3554C13.2644 15.5726 11.2496 16.1811 8.68875 16.1811H3.80243V22.1357H0.977966V2.47436H8.68875ZM8.60401 13.7375C10.3928 13.7375 11.758 13.363 12.6995 12.614C13.641 11.8463 14.1117 10.7509 14.1117 9.32775C14.1117 7.90465 13.641 6.81859 12.6995 6.06958C11.758 5.30185 10.3928 4.91799 8.60401 4.91799H3.80243V13.7375H8.60401Z" fill="white"/>
<path d="M20.442 7.24927H23.1535V22.1357H20.442V7.24927ZM21.7978 4.38432C21.2705 4.38432 20.828 4.2158 20.4703 3.87875C20.1313 3.54169 19.9619 3.12974 19.9619 2.64289C19.9619 2.15604 20.1313 1.74408 20.4703 1.40703C20.828 1.05126 21.2705 0.873367 21.7978 0.873367C22.325 0.873367 22.7581 1.04189 23.097 1.37895C23.4548 1.69727 23.6337 2.09986 23.6337 2.58671C23.6337 3.09229 23.4548 3.52297 23.097 3.87875C22.7581 4.2158 22.325 4.38432 21.7978 4.38432Z" fill="white"/>
<path d="M36.2674 7.10883C37.7173 7.10883 39.0166 7.42715 40.1652 8.06381C41.3138 8.70046 42.2082 9.5899 42.8484 10.7321C43.5075 11.8744 43.837 13.1945 43.837 14.6925C43.837 16.1905 43.5075 17.52 42.8484 18.6809C42.2082 19.8232 41.3138 20.7126 40.1652 21.3493C39.0166 21.9859 37.7173 22.3043 36.2674 22.3043C35.1941 22.3043 34.2056 22.0983 33.3017 21.6863C32.4167 21.2744 31.6635 20.6752 31.0422 19.8887V27.5847H28.3307V7.24927H30.9292V9.60863C31.5317 8.78473 32.2943 8.1668 33.217 7.75484C34.1397 7.32417 35.1565 7.10883 36.2674 7.10883ZM36.0415 19.9449C37.0018 19.9449 37.8585 19.7296 38.6117 19.2989C39.3837 18.8495 39.9863 18.2315 40.4194 17.4451C40.8713 16.6399 41.0972 15.7224 41.0972 14.6925C41.0972 13.6626 40.8713 12.7544 40.4194 11.968C39.9863 11.1628 39.3837 10.5449 38.6117 10.1142C37.8585 9.68353 37.0018 9.46819 36.0415 9.46819C35.1 9.46819 34.2432 9.69289 33.4712 10.1423C32.718 10.573 32.1155 11.1815 31.6635 11.968C31.2305 12.7544 31.0139 13.6626 31.0139 14.6925C31.0139 15.7224 31.2305 16.6399 31.6635 17.4451C32.0966 18.2315 32.6992 18.8495 33.4712 19.2989C34.2432 19.7296 35.1 19.9449 36.0415 19.9449Z" fill="white"/>
<path d="M61.1125 14.7768C61.1125 14.9827 61.0937 15.2542 61.056 15.5913H48.9109C49.0803 16.9021 49.6546 17.96 50.6338 18.7652C51.6317 19.5517 52.8651 19.9449 54.3338 19.9449C56.1226 19.9449 57.5631 19.3457 58.6552 18.1473L60.1522 19.8887C59.4743 20.6752 58.627 21.2744 57.6102 21.6863C56.6122 22.0983 55.4919 22.3043 54.2491 22.3043C52.6674 22.3043 51.2646 21.9859 50.0406 21.3493C48.8167 20.6939 47.8658 19.7857 47.1879 18.6248C46.5289 17.4638 46.1994 16.1531 46.1994 14.6925C46.1994 13.2507 46.5195 11.9493 47.1597 10.7883C47.8187 9.62735 48.7131 8.72855 49.8429 8.0919C50.9915 7.43652 52.2814 7.10883 53.7124 7.10883C55.1435 7.10883 56.4145 7.43652 57.5255 8.0919C58.6552 8.72855 59.5308 9.62735 60.1522 10.7883C60.7924 11.9493 61.1125 13.2788 61.1125 14.7768ZM53.7124 9.38393C52.4132 9.38393 51.3211 9.77716 50.4361 10.5636C49.5699 11.3501 49.0615 12.3799 48.9109 13.6533H58.514C58.3634 12.3987 57.8456 11.3782 56.9606 10.5917C56.0944 9.78652 55.0117 9.38393 53.7124 9.38393Z" fill="white"/>
<path d="M79 1.29468V22.1357H76.4015V19.7764C75.7989 20.6003 75.0363 21.2276 74.1137 21.6582C73.191 22.0889 72.1742 22.3043 71.0632 22.3043C69.6133 22.3043 68.3141 21.9859 67.1655 21.3493C66.0169 20.7126 65.113 19.8232 64.454 18.6809C63.8138 17.52 63.4937 16.1905 63.4937 14.6925C63.4937 13.1945 63.8138 11.8744 64.454 10.7321C65.113 9.5899 66.0169 8.70046 67.1655 8.06381C68.3141 7.42715 69.6133 7.10883 71.0632 7.10883C72.1365 7.10883 73.1251 7.3148 74.0289 7.72676C74.9328 8.11998 75.6859 8.70982 76.2885 9.49628V1.29468H79ZM71.2892 19.9449C72.2307 19.9449 73.0874 19.7296 73.8595 19.2989C74.6315 18.8495 75.234 18.2315 75.6671 17.4451C76.1002 16.6399 76.3167 15.7224 76.3167 14.6925C76.3167 13.6626 76.1002 12.7544 75.6671 11.968C75.234 11.1628 74.6315 10.5449 73.8595 10.1142C73.0874 9.68353 72.2307 9.46819 71.2892 9.46819C70.3289 9.46819 69.4627 9.68353 68.6907 10.1142C67.9375 10.5449 67.335 11.1628 66.883 11.968C66.45 12.7544 66.2334 13.6626 66.2334 14.6925C66.2334 15.7224 66.45 16.6399 66.883 17.4451C67.335 18.2315 67.9375 18.8495 68.6907 19.2989C69.4627 19.7296 70.3289 19.9449 71.2892 19.9449Z" fill="white"/>
</svg>
